<svg width="59" height="266" viewBox="0 0 59 266" fill="none" xmlns="http://www.w3.org/2000/svg">
<g id="social media">
    <g id="messenger" clip-path="url(#clip0_6_77)">
        <path id="circle" d="M29.5 0C12.8841 0 0 12.1761 0 28.615C0 37.2143 3.52525 44.6483 9.263 49.7813C9.74237 50.209 10.0374 50.8138 10.0521 51.4628L10.2144 56.7138C10.2262 57.1001 10.3327 57.4777 10.5246 57.8132C10.7165 58.1488 10.9879 58.432 11.3149 58.6381C11.6419 58.8442 12.0145 58.9669 12.4 58.9953C12.7855 59.0236 13.1721 58.9569 13.5257 58.8009L19.3815 56.2196C19.8756 55.9984 20.4361 55.9615 20.9597 56.1016C23.6516 56.8391 26.5131 57.2374 29.5 57.2374C46.1159 57.2374 59 45.0613 59 28.6224C59 12.1835 46.1159 0 29.5 0Z" fill="white"/>
        <path id="Vector" d="M11.7853 36.9856L20.4509 23.2386C20.7769 22.7211 21.2066 22.2767 21.713 21.9336C22.2194 21.5905 22.7914 21.3561 23.3929 21.2452C23.9945 21.1343 24.6125 21.1494 25.2079 21.2894C25.8033 21.4294 26.3633 21.6913 26.8524 22.0586L33.748 27.2285C34.0559 27.459 34.4304 27.5829 34.8149 27.5816C35.1995 27.5803 35.5731 27.4537 35.8794 27.2211L45.1866 20.1559C46.4256 19.2119 48.0481 20.7016 47.2221 22.0217L38.5491 35.7614C38.2231 36.2789 37.7934 36.7233 37.287 37.0664C36.7806 37.4095 36.2086 37.6439 35.6071 37.7548C35.0055 37.8657 34.3875 37.8506 33.7921 37.7106C33.1967 37.5706 32.6367 37.3087 32.1476 36.9414L25.252 31.7715C24.9442 31.541 24.5696 31.4171 24.1851 31.4184C23.8005 31.4197 23.4269 31.5463 23.1206 31.7789L13.8134 38.8441C12.5744 39.7881 10.9519 38.3057 11.7853 36.9856Z" fill="black"/>
    </g>
    <g id="facebook" clip-path="url(#clip1_6_77)">
        <path id="circle_2" d="M24.6325 127.705C10.62 125.197 0 113.103 0 98.5C0 82.275 13.275 69 29.5 69C45.725 69 59 82.275 59 98.5C59 113.103 48.38 125.197 34.3675 127.705L32.745 126.378H26.255L24.6325 127.705Z" fill="white"/>
        <path id="f" d="M41.005 106.76L42.3325 98.5H34.515V92.7475C34.515 90.3875 35.4 88.6175 38.94 88.6175H42.775V81.095C40.71 80.8 38.35 80.505 36.285 80.505C29.5 80.505 24.78 84.635 24.78 92.01V98.5H17.405V106.76H24.78V127.558C26.4025 127.853 28.025 128 29.6475 128C31.27 128 32.8925 127.853 34.515 127.558V106.76H41.005Z" fill="black"/>
    </g>
    <g id="instagram">
        <circle id="circle_3" cx="29.5" cy="236.5" r="29.5" fill="white"/>
        <path id="icon" d="M29.5009 215.045C23.6744 215.045 22.9431 215.071 20.6547 215.175C18.3708 215.28 16.8118 215.641 15.4477 216.172C14.0366 216.72 12.8397 217.453 11.6472 218.646C10.4538 219.838 9.72083 221.035 9.17108 222.446C8.6392 223.811 8.27717 225.37 8.17437 227.653C8.07201 229.942 8.0452 230.673 8.0452 236.5C8.0452 242.327 8.07112 243.056 8.17481 245.344C8.27985 247.628 8.64144 249.187 9.17153 250.551C9.71994 251.962 10.4529 253.159 11.6459 254.352C12.8379 255.545 14.0349 256.28 15.445 256.828C16.81 257.359 18.3694 257.72 20.6529 257.825C22.9414 257.929 23.6721 257.955 29.4982 257.955C35.3252 257.955 36.0542 257.929 38.3426 257.825C40.6265 257.72 42.1873 257.359 43.5523 256.828C44.9629 256.28 46.158 255.545 47.3501 254.352C48.5434 253.159 49.2765 251.962 49.8262 250.552C50.3536 249.187 50.7157 247.628 50.8229 245.345C50.9257 243.056 50.9525 242.327 50.9525 236.5C50.9525 230.673 50.9257 229.942 50.8229 227.654C50.7157 225.37 50.3536 223.811 49.8262 222.446C49.2765 221.035 48.5434 219.838 47.3501 218.646C46.1567 217.452 44.9633 216.719 43.5509 216.172C42.1833 215.641 40.6234 215.28 38.3394 215.175C36.051 215.071 35.3225 215.045 29.4942 215.045H29.5009ZM27.5763 218.912C28.1475 218.911 28.7849 218.912 29.5009 218.912C35.2291 218.912 35.908 218.932 38.17 219.035C40.2618 219.131 41.3971 219.48 42.1533 219.774C43.1545 220.163 43.8683 220.628 44.6187 221.379C45.3696 222.129 45.8344 222.845 46.2242 223.846C46.5178 224.601 46.8678 225.737 46.963 227.828C47.0658 230.09 47.0882 230.769 47.0882 236.495C47.0882 242.221 47.0658 242.9 46.963 245.162C46.8674 247.254 46.5178 248.389 46.2242 249.144C45.8353 250.146 45.3696 250.858 44.6187 251.609C43.8678 252.36 43.1549 252.825 42.1533 253.214C41.398 253.509 40.2618 253.857 38.17 253.953C35.9084 254.056 35.2291 254.078 29.5009 254.078C23.7722 254.078 23.0933 254.056 20.8317 253.953C18.74 253.856 17.6047 253.507 16.848 253.213C15.8468 252.824 15.1317 252.359 14.3808 251.608C13.6299 250.858 13.1651 250.144 12.7753 249.143C12.4817 248.387 12.1317 247.252 12.0365 245.16C11.9337 242.898 11.9132 242.219 11.9132 236.49C11.9132 230.76 11.9337 230.085 12.0365 227.823C12.1322 225.731 12.4817 224.596 12.7753 223.84C13.1642 222.838 13.6299 222.123 14.3808 221.372C15.1317 220.621 15.8468 220.157 16.848 219.767C17.6042 219.472 18.74 219.123 20.8317 219.027C22.8108 218.938 23.5778 218.911 27.5763 218.906V218.912ZM40.9528 222.474C39.5315 222.474 38.3783 223.626 38.3783 225.048C38.3783 226.469 39.5315 227.622 40.9528 227.622C42.3741 227.622 43.5273 226.469 43.5273 225.048C43.5273 223.626 42.3741 222.473 40.9528 222.473V222.474ZM29.5009 225.482C23.4165 225.482 18.4834 230.415 18.4834 236.5C18.4834 242.585 23.4165 247.516 29.5009 247.516C35.5853 247.516 40.5166 242.585 40.5166 236.5C40.5166 230.415 35.5853 225.482 29.5009 225.482ZM29.5009 229.348C33.4502 229.348 36.6522 232.55 36.6522 236.5C36.6522 240.449 33.4502 243.652 29.5009 243.652C25.5511 243.652 22.3496 240.449 22.3496 236.5C22.3496 232.55 25.5511 229.348 29.5009 229.348Z" fill="black"/>
    </g>
    <g id="whatsapp">
        <circle id="Ellipse 9" cx="29.5" cy="167.5" r="29.5" fill="white"/>
        <path id="Vector_2" d="M7.70001 188.923L10.6789 178.068C8.83858 174.883 7.87192 171.271 7.87637 167.594C7.88122 156.043 17.2993 146.646 28.8727 146.646C34.4889 146.649 39.7604 148.83 43.725 152.79C47.6895 156.75 49.8708 162.013 49.8688 167.611C49.8637 179.161 40.4442 188.56 28.8725 188.56H28.8633C25.3497 188.559 21.8971 187.679 18.8303 186.01L7.70001 188.923Z" fill="black"/>
        <path id="Vector_3" d="M28.879 150.185C19.2529 150.185 11.4246 157.996 11.4211 167.596C11.4164 170.874 12.3413 174.087 14.089 176.862L14.5042 177.521L12.7409 183.946L19.3459 182.217L19.9837 182.595C22.6624 184.181 25.7338 185.02 28.8659 185.022H28.8724C38.4911 185.022 46.3195 177.211 46.3232 167.61C46.3305 165.321 45.8829 163.054 45.0063 160.94C44.1298 158.825 42.8417 156.905 41.2166 155.291C39.6006 153.668 37.6781 152.381 35.5603 151.505C33.4425 150.628 31.1716 150.18 28.879 150.185Z" fill="white"/>
        <path id="phone" fill-rule="evenodd" clip-rule="evenodd" d="M23.6249 158.837C23.2317 157.965 22.8179 157.947 22.4444 157.932L21.4388 157.92C21.0889 157.92 20.5205 158.051 20.0399 158.575C19.5594 159.099 18.2036 160.366 18.2036 162.942C18.2036 165.518 20.0836 168.007 20.3455 168.357C20.6075 168.707 23.9748 174.162 29.3073 176.261C33.7387 178.005 34.6405 177.658 35.6027 177.571C36.565 177.484 38.7066 176.304 39.1435 175.081C39.5804 173.859 39.5807 172.811 39.4497 172.592C39.3187 172.373 38.9688 172.243 38.4438 171.981C37.9187 171.719 35.3399 170.452 34.8591 170.277C34.3782 170.103 34.0287 170.016 33.6785 170.54C33.3284 171.064 32.3242 172.243 32.018 172.592C31.7118 172.942 31.4062 172.985 30.8811 172.724C30.356 172.462 28.6667 171.909 26.6623 170.125C25.1028 168.737 24.0501 167.023 23.7436 166.499C23.4372 165.976 23.7111 165.692 23.9742 165.431C24.2096 165.196 24.4987 164.819 24.7615 164.514C25.0243 164.208 25.1108 163.99 25.2854 163.641C25.4601 163.292 25.3731 162.986 25.2418 162.724C25.1105 162.462 24.0912 159.872 23.6249 158.837Z" fill="black"/>
    </g>
    </g>
<defs>
    <clipPath id="clip0_6_77">
        <rect width="59" height="59" fill="white"/>
    </clipPath>
    <clipPath id="clip1_6_77">
        <rect width="59" height="59" fill="white" transform="translate(0 69)"/>
    </clipPath>
</defs>
</svg>
